<mxfile host="app.diagrams.net" modified="2023-10-28T19:12:11.580Z" agent="Mozilla/5.0 (Windows NT 10.0; Win64; x64) AppleWebKit/537.36 (KHTML, like Gecko) Chrome/115.0.0.0 Safari/537.36 Edg/115.0.1901.200" etag="sCwecmDXzaP4kLanbuFd" version="22.0.8" type="github">
  <diagram name="Página-1" id="asKn0WebNku9eT6jBnbw">
    <mxGraphModel dx="996" dy="506" grid="1" gridSize="10" guides="1" tooltips="1" connect="1" arrows="1" fold="1" page="1" pageScale="1" pageWidth="827" pageHeight="1169" math="0" shadow="0">
      <root>
        <mxCell id="0" />
        <mxCell id="1" parent="0" />
        <mxCell id="8VQXyL3q_rGjSYmy8A8x-4" value="" style="edgeStyle=orthogonalEdgeStyle;rounded=0;orthogonalLoop=1;jettySize=auto;html=1;" edge="1" parent="1" source="8VQXyL3q_rGjSYmy8A8x-1" target="8VQXyL3q_rGjSYmy8A8x-2">
          <mxGeometry relative="1" as="geometry" />
        </mxCell>
        <object label="Inicio" id="8VQXyL3q_rGjSYmy8A8x-1">
          <mxCell style="rounded=1;whiteSpace=wrap;html=1;arcSize=50;" vertex="1" parent="1">
            <mxGeometry x="130" y="40" width="120" height="60" as="geometry" />
          </mxCell>
        </object>
        <mxCell id="8VQXyL3q_rGjSYmy8A8x-5" value="" style="edgeStyle=orthogonalEdgeStyle;rounded=0;orthogonalLoop=1;jettySize=auto;html=1;" edge="1" parent="1" source="8VQXyL3q_rGjSYmy8A8x-2" target="8VQXyL3q_rGjSYmy8A8x-3">
          <mxGeometry relative="1" as="geometry" />
        </mxCell>
        <mxCell id="8VQXyL3q_rGjSYmy8A8x-2" value="&quot;Este es un diagrama de flujo&quot;" style="shape=document;whiteSpace=wrap;html=1;boundedLbl=1;" vertex="1" parent="1">
          <mxGeometry x="130" y="150" width="120" height="80" as="geometry" />
        </mxCell>
        <mxCell id="8VQXyL3q_rGjSYmy8A8x-3" value="Fin" style="rounded=1;whiteSpace=wrap;html=1;arcSize=50;" vertex="1" parent="1">
          <mxGeometry x="130" y="280" width="120" height="60" as="geometry" />
        </mxCell>
        <mxCell id="8VQXyL3q_rGjSYmy8A8x-15" value="" style="edgeStyle=orthogonalEdgeStyle;rounded=0;orthogonalLoop=1;jettySize=auto;html=1;" edge="1" parent="1" source="8VQXyL3q_rGjSYmy8A8x-6" target="8VQXyL3q_rGjSYmy8A8x-7">
          <mxGeometry relative="1" as="geometry" />
        </mxCell>
        <mxCell id="8VQXyL3q_rGjSYmy8A8x-6" value="Inicio" style="rounded=1;whiteSpace=wrap;html=1;arcSize=43;" vertex="1" parent="1">
          <mxGeometry x="440" y="30" width="120" height="60" as="geometry" />
        </mxCell>
        <mxCell id="8VQXyL3q_rGjSYmy8A8x-16" value="" style="edgeStyle=orthogonalEdgeStyle;rounded=0;orthogonalLoop=1;jettySize=auto;html=1;" edge="1" parent="1" source="8VQXyL3q_rGjSYmy8A8x-7" target="8VQXyL3q_rGjSYmy8A8x-10">
          <mxGeometry relative="1" as="geometry">
            <Array as="points">
              <mxPoint x="500" y="230" />
              <mxPoint x="500" y="230" />
            </Array>
          </mxGeometry>
        </mxCell>
        <mxCell id="8VQXyL3q_rGjSYmy8A8x-7" value="num1&lt;br&gt;num2" style="shape=parallelogram;perimeter=parallelogramPerimeter;whiteSpace=wrap;html=1;fixedSize=1;" vertex="1" parent="1">
          <mxGeometry x="440" y="140" width="120" height="60" as="geometry" />
        </mxCell>
        <mxCell id="8VQXyL3q_rGjSYmy8A8x-8" value="Muestra el resultado" style="shape=callout;whiteSpace=wrap;html=1;perimeter=calloutPerimeter;position2=0;" vertex="1" parent="1">
          <mxGeometry x="270" y="100" width="120" height="80" as="geometry" />
        </mxCell>
        <mxCell id="8VQXyL3q_rGjSYmy8A8x-9" value="La entrada de la operación" style="shape=callout;whiteSpace=wrap;html=1;perimeter=calloutPerimeter;position2=0;" vertex="1" parent="1">
          <mxGeometry x="590" y="90" width="120" height="90" as="geometry" />
        </mxCell>
        <mxCell id="8VQXyL3q_rGjSYmy8A8x-17" value="" style="edgeStyle=orthogonalEdgeStyle;rounded=0;orthogonalLoop=1;jettySize=auto;html=1;" edge="1" parent="1" source="8VQXyL3q_rGjSYmy8A8x-10" target="8VQXyL3q_rGjSYmy8A8x-12">
          <mxGeometry relative="1" as="geometry" />
        </mxCell>
        <mxCell id="8VQXyL3q_rGjSYmy8A8x-10" value="res = num1 + num2" style="rounded=0;whiteSpace=wrap;html=1;" vertex="1" parent="1">
          <mxGeometry x="420" y="240" width="170" height="60" as="geometry" />
        </mxCell>
        <mxCell id="8VQXyL3q_rGjSYmy8A8x-18" value="" style="edgeStyle=orthogonalEdgeStyle;rounded=0;orthogonalLoop=1;jettySize=auto;html=1;" edge="1" parent="1" source="8VQXyL3q_rGjSYmy8A8x-12" target="8VQXyL3q_rGjSYmy8A8x-14">
          <mxGeometry relative="1" as="geometry">
            <Array as="points">
              <mxPoint x="505" y="470" />
              <mxPoint x="505" y="470" />
            </Array>
          </mxGeometry>
        </mxCell>
        <mxCell id="8VQXyL3q_rGjSYmy8A8x-12" value="resultado" style="shape=document;whiteSpace=wrap;html=1;boundedLbl=1;" vertex="1" parent="1">
          <mxGeometry x="445" y="360" width="120" height="80" as="geometry" />
        </mxCell>
        <mxCell id="8VQXyL3q_rGjSYmy8A8x-13" value="La operación" style="shape=callout;whiteSpace=wrap;html=1;perimeter=calloutPerimeter;position2=0;" vertex="1" parent="1">
          <mxGeometry x="630" y="200" width="120" height="80" as="geometry" />
        </mxCell>
        <mxCell id="8VQXyL3q_rGjSYmy8A8x-14" value="Fin" style="rounded=1;whiteSpace=wrap;html=1;arcSize=43;" vertex="1" parent="1">
          <mxGeometry x="440" y="470" width="120" height="60" as="geometry" />
        </mxCell>
      </root>
    </mxGraphModel>
  </diagram>
</mxfile>
